<svg id="Layer_1" height="512" viewBox="0 0 50 50" width="512" xmlns="http://www.w3.org/2000/svg"><g><g><path d="m49.0023 3.5473v36.82l-8.59 8.58h-24.32c-1.3807 0-2.5-1.1193-2.5-2.5v-42.9c0-1.3807 1.1193-2.5 2.5-2.5h30.41c1.3807 0 2.5 1.1192 2.5 2.5z" fill="#efefed"/><path d="m3.5033 48.9493c-.891 0-2.5032-1.6122-2.5032-2.5032 0-3.1961 7.1489-8.4923 10.1611-10.5854.4031.5445.8627 1.0748 1.3577 1.5698s1.0253.9546 1.5698 1.3577c-2.0931 3.0123-7.3893 10.1611-10.5854 10.1611z" fill="#ea715f"/><path d="m2.8555 42.8753c-1.1106 1.2916-1.8579 2.543-1.8578 3.5748 0 .8853 1.6172 2.5026 2.5026 2.5026 1.0318 0 2.2832-.7473 3.5748-1.8579z" fill="#d75548"/><g><path d="m42.8971 7.1511c-2.5335-2.5335-6.0335-4.1005-9.8995-4.1005-3.8659 0-7.3659 1.567-9.8995 4.1005l9.8995 9.8995z" fill="#ffcb66"/><path d="m23.0982 7.1511c-2.5335 2.5335-4.1005 6.0335-4.1005 9.8995s1.567 7.366 4.1005 9.8995l9.8995-9.8995z" fill="#ea715f"/><path d="m42.8971 7.1511-9.8995 9.8995 9.8995 9.8995c2.5335-2.5335 4.1005-6.0335 4.1005-9.8995s-1.567-7.366-4.1005-9.8995z" fill="#58b2e4"/><path d="m23.0982 26.95c2.5335 2.5335 6.0335 4.1005 9.8995 4.1005s7.366-1.567 9.8995-4.1005l-9.8995-9.8995z" fill="#85be57"/><path d="m39.4973 17.0474c0 3.5986-2.9063 6.5049-6.4951 6.5049-3.5986 0-6.5049-2.9063-6.5049-6.5049 0-3.5889 2.9062-6.4951 6.5049-6.4951 3.5889 0 6.4951 2.9062 6.4951 6.4951z" fill="#fff"/></g><circle cx="21.747" cy="28.203" fill="#696867" r="13.5"/><circle cx="21.747" cy="28.203" fill="#fff" r="9.798"/><path d="m23.3911 20.3121s-5.4491-1.2585-7.7983 4.0691l3.4049 2.475s-.2254-4.6564 4.3934-6.5441z" fill="#efefed"/><path d="m49.0023 40.3673-8.59 8.58v-7.58c0-.5523.4477-1 1-1z" fill="#c8c8c8"/></g></g></svg>